<svg xmlns="http://www.w3.org/2000/svg" viewBox="0 0 33 36" width="33" height="36">
	<style>
		tspan { white-space:pre }
		.shp0 { fill: #2f89fc } 
	</style>
	<path id="Path 1419" fill-rule="evenodd" class="shp0" d="M27.28 4.5C30.3 4.5 32.74 6.85 32.74 9.75L32.74 30.75C32.74 33.65 30.3 36 27.28 36L5.46 36C2.44 36 0 33.65 0 30.75L0 9.75C0 6.85 2.44 4.5 5.46 4.5L7.28 4.5L7.28 2.75C7.28 1.78 8.09 1 9.09 1C10.1 1 10.91 1.78 10.91 2.75L10.91 4.5L21.83 4.5L21.83 2.75C21.83 1.78 22.64 1 23.65 1C24.65 1 25.47 1.78 25.47 2.75L25.47 4.5L27.28 4.5ZM3.64 9.75L3.64 16.75L29.1 16.75L29.1 9.75C29.1 8.78 28.29 8 27.28 8L25.47 8L25.47 9.75C25.47 10.72 24.65 11.5 23.65 11.5C22.64 11.5 21.83 10.72 21.83 9.75L21.83 8L10.91 8L10.91 9.75C10.91 10.72 10.1 11.5 9.09 11.5C8.09 11.5 7.28 10.72 7.28 9.75L7.28 8L5.46 8C4.45 8 3.64 8.78 3.64 9.75ZM29.1 30.75L29.1 20.25L3.64 20.25L3.64 30.75C3.64 31.72 4.45 32.5 5.46 32.5L27.28 32.5C28.29 32.5 29.1 31.72 29.1 30.75Z" />
	<path id="Ellipse 70" class="shp0" d="M9.54 26.33C8.99 26.33 8.54 25.88 8.54 25.33C8.54 24.77 8.99 24.33 9.54 24.33C10.09 24.33 10.54 24.77 10.54 25.33C10.54 25.88 10.09 26.33 9.54 26.33Z" />
	<path id="Path 1420" class="shp0" d="M22.12 24.33L18.12 24.33C17.57 24.33 17.12 24.78 17.12 25.33C17.12 25.88 17.57 26.33 18.12 26.33L22.12 26.33C22.67 26.33 23.12 25.88 23.12 25.33C23.12 24.78 22.67 24.33 22.12 24.33Z" />
</svg>