<svg xmlns="http://www.w3.org/2000/svg" viewBox="0 0 35 35" width="35" height="35">
	<style>
		tspan { white-space:pre }
		.shp0 { fill: #2f89fc } 
	</style>
	<path id="Path 1421" fill-rule="evenodd" class="shp0" d="M35 17.5C35 27.16 27.16 35 17.5 35C7.83 35 0 27.16 0 17.5C0 7.83 7.83 0 17.5 0C27.16 0 35 7.83 35 17.5ZM31.5 17.5C31.5 9.77 25.23 3.5 17.5 3.5C9.77 3.5 3.5 9.77 3.5 17.5C3.5 25.23 9.77 31.5 17.5 31.5C25.23 31.5 31.5 25.23 31.5 17.5Z" />
	<path id="Path 1422" class="shp0" d="M24.5 15.75L19.25 15.75L19.25 10.5C19.25 9.53 18.47 8.75 17.5 8.75C16.53 8.75 15.75 9.53 15.75 10.5L15.75 17.5C15.75 18.47 16.53 19.25 17.5 19.25L24.5 19.25C25.47 19.25 26.25 18.47 26.25 17.5C26.25 16.53 25.47 15.75 24.5 15.75Z" />
</svg>