<svg xmlns="http://www.w3.org/2000/svg" viewBox="0 0 10 35" width="10" height="35">
	<style>
		tspan { white-space:pre }
		.shp0 { fill: #ffffff } 
	</style>
	<path id="Path 1418" class="shp0" d="M9.75 4.37C9.75 1.96 7.79 0 5.37 0C2.96 0 1 1.96 1 4.37C1 6.79 2.96 8.75 5.37 8.75C7.79 8.75 9.75 6.79 9.75 4.37ZM9.75 17.5C9.75 15.08 7.79 13.12 5.37 13.12C2.96 13.12 1 15.08 1 17.5C1 19.92 2.96 21.87 5.37 21.87C7.79 21.87 9.75 19.92 9.75 17.5ZM9.75 30.62C9.75 28.21 7.79 26.25 5.37 26.25C2.96 26.25 1 28.21 1 30.62C1 33.04 2.96 35 5.37 35C7.79 35 9.75 33.04 9.75 30.62Z" />
</svg>