<svg xmlns="http://www.w3.org/2000/svg" viewBox="0 0 45 30" width="45" height="30">
	<style>
		tspan { white-space:pre }
		.shp0 { fill: #ff9800 } 
		.shp1 { fill: #f5f5f5 } 
		.shp2 { fill: #388e3c } 
		.shp3 { fill: #000088 } 
	</style>
	<g id="surface1">
		<path id="Path 1423" class="shp0" d="M1 0L45 0L45 10L1 10L1 0Z" />
		<path id="Path 1424" class="shp1" d="M1 10L45 10L45 20L1 20L1 10Z" />
		<path id="Path 1425" class="shp2" d="M1 20L45 20L45 30L1 30L1 20Z" />
		<path id="Path 1426" fill-rule="evenodd" class="shp3" d="M26.91 15C26.91 17.16 25.16 18.91 23 18.91C20.84 18.91 19.09 17.16 19.09 15C19.09 12.84 20.84 11.09 23 11.09C25.16 11.09 26.91 12.84 26.91 15ZM26.42 15C26.42 13.11 24.89 11.58 23 11.58C21.11 11.58 19.58 13.11 19.58 15C19.58 16.89 21.11 18.42 23 18.42C24.89 18.42 26.42 16.89 26.42 15Z" />
		<path id="Path 1427" class="shp3" d="M23.68 15C23.68 15.38 23.38 15.68 23 15.68C22.62 15.68 22.32 15.38 22.32 15C22.32 14.62 22.62 14.32 23 14.32C23.38 14.32 23.68 14.62 23.68 15Z" />
		<path id="Path 1428" class="shp3" d="M26.42 15.28C26.32 15.27 26.24 15.33 26.23 15.42C26.21 15.52 26.28 15.6 26.37 15.61C26.46 15.63 26.55 15.56 26.56 15.47C26.58 15.37 26.51 15.29 26.42 15.28Z" />
		<path id="Path 1429" class="shp3" d="M23 18.42L23.12 16.37L23 15.39L22.88 16.37L23 18.42Z" />
		<path id="Path 1430" class="shp3" d="M26.23 16.15C26.14 16.12 26.04 16.16 26 16.25C25.97 16.33 26.01 16.43 26.1 16.47C26.18 16.5 26.29 16.46 26.32 16.37C26.36 16.29 26.32 16.19 26.23 16.15Z" />
		<path id="Path 1431" class="shp3" d="M22.11 18.3L22.76 16.35L22.9 15.38L22.53 16.29L22.11 18.3Z" />
		<path id="Path 1432" class="shp3" d="M25.82 16.95C25.75 16.89 25.64 16.9 25.58 16.98C25.52 17.05 25.54 17.16 25.61 17.22C25.69 17.28 25.8 17.26 25.85 17.19C25.91 17.11 25.89 17 25.82 16.95Z" />
		<path id="Path 1433" class="shp3" d="M21.29 17.96L22.42 16.24L22.8 15.34L22.21 16.13L21.29 17.96Z" />
		<path id="Path 1434" class="shp3" d="M25.22 17.61C25.16 17.54 25.05 17.52 24.98 17.58C24.91 17.64 24.89 17.75 24.95 17.82C25.01 17.89 25.11 17.91 25.19 17.85C25.27 17.79 25.28 17.69 25.22 17.61Z" />
		<path id="Path 1435" class="shp3" d="M20.58 17.42L22.11 16.05L22.72 15.28L21.95 15.89L20.58 17.42Z" />
		<path id="Path 1436" class="shp3" d="M24.47 18.09C24.43 18.01 24.33 17.97 24.25 18C24.16 18.04 24.12 18.14 24.15 18.23C24.19 18.31 24.29 18.36 24.37 18.32C24.46 18.28 24.5 18.18 24.47 18.09Z" />
		<path id="Path 1437" class="shp3" d="M20.04 16.71L21.87 15.79L22.66 15.2L21.76 15.58L20.04 16.71Z" />
		<path id="Path 1438" class="shp3" d="M23.62 18.37C23.61 18.28 23.52 18.21 23.43 18.22C23.33 18.24 23.27 18.32 23.28 18.42C23.29 18.51 23.38 18.57 23.47 18.56C23.57 18.55 23.63 18.46 23.62 18.37Z" />
		<path id="Path 1439" class="shp3" d="M19.7 15.89L21.71 15.47L22.62 15.1L21.65 15.24L19.7 15.89Z" />
		<path id="Path 1440" class="shp3" d="M22.57 18.23C22.48 18.21 22.39 18.28 22.38 18.37C22.37 18.46 22.44 18.55 22.53 18.56C22.62 18.58 22.71 18.51 22.72 18.42C22.73 18.32 22.67 18.24 22.57 18.23Z" />
		<path id="Path 1441" class="shp3" d="M19.58 15L21.63 15.12L22.61 15L21.63 14.88L19.58 15Z" />
		<path id="Path 1442" class="shp3" d="M21.76 18C21.67 17.97 21.57 18.01 21.54 18.1C21.5 18.18 21.54 18.29 21.62 18.32C21.71 18.36 21.81 18.32 21.85 18.23C21.89 18.14 21.84 18.04 21.76 18Z" />
		<path id="Path 1443" class="shp3" d="M19.7 14.11L21.65 14.76L22.62 14.9L21.71 14.53L19.7 14.11Z" />
		<path id="Path 1444" class="shp3" d="M21.02 17.58C20.95 17.52 20.84 17.54 20.79 17.61C20.73 17.69 20.74 17.79 20.82 17.85C20.89 17.91 21 17.89 21.05 17.82C21.11 17.74 21.1 17.64 21.02 17.58Z" />
		<path id="Path 1445" class="shp3" d="M20.04 13.29L21.76 14.42L22.66 14.8L21.87 14.21L20.04 13.29Z" />
		<path id="Path 1446" class="shp3" d="M20.42 16.98C20.36 16.91 20.26 16.89 20.18 16.95C20.11 17 20.09 17.11 20.15 17.19C20.21 17.26 20.32 17.28 20.39 17.22C20.46 17.16 20.48 17.05 20.42 16.98Z" />
		<path id="Path 1447" class="shp3" d="M20.58 12.58L21.95 14.11L22.72 14.72L22.11 13.95L20.58 12.58Z" />
		<path id="Path 1448" class="shp3" d="M20 16.24C19.96 16.16 19.86 16.11 19.77 16.15C19.69 16.19 19.64 16.29 19.68 16.37C19.72 16.46 19.82 16.5 19.91 16.47C19.99 16.43 20.04 16.33 20 16.24Z" />
		<path id="Path 1449" class="shp3" d="M21.29 12.04L22.21 13.87L22.8 14.66L22.42 13.76L21.29 12.04Z" />
		<path id="Path 1450" class="shp3" d="M19.78 15.42C19.76 15.33 19.68 15.27 19.59 15.28C19.49 15.29 19.43 15.37 19.44 15.47C19.45 15.56 19.54 15.63 19.63 15.61C19.72 15.6 19.79 15.52 19.78 15.42Z" />
		<path id="Path 1451" class="shp3" d="M22.11 11.7L22.53 13.71L22.9 14.62L22.76 13.65L22.11 11.7Z" />
		<path id="Path 1452" class="shp3" d="M19.63 14.38C19.54 14.37 19.45 14.44 19.44 14.53C19.43 14.62 19.49 14.71 19.59 14.72C19.68 14.73 19.77 14.67 19.78 14.57C19.79 14.48 19.72 14.39 19.63 14.38Z" />
		<path id="Path 1453" class="shp3" d="M23 11.58L22.88 13.63L23 14.61L23.12 13.63L23 11.58Z" />
		<path id="Path 1454" class="shp3" d="M19.9 13.53C19.82 13.5 19.71 13.54 19.68 13.62C19.64 13.71 19.68 13.81 19.77 13.85C19.86 13.88 19.96 13.84 20 13.75C20.03 13.67 19.99 13.57 19.9 13.53Z" />
		<path id="Path 1455" class="shp3" d="M23.89 11.7L23.24 13.65L23.1 14.62L23.47 13.71L23.89 11.7Z" />
		<path id="Path 1456" class="shp3" d="M20.39 12.78C20.31 12.72 20.21 12.73 20.15 12.81C20.09 12.89 20.11 12.99 20.18 13.05C20.26 13.11 20.36 13.09 20.42 13.02C20.48 12.95 20.46 12.84 20.39 12.78Z" />
		<path id="Path 1457" class="shp3" d="M24.71 12.04L23.58 13.76L23.2 14.66L23.79 13.87L24.71 12.04Z" />
		<path id="Path 1458" class="shp3" d="M21.05 12.18C21 12.11 20.89 12.09 20.82 12.15C20.74 12.21 20.73 12.31 20.78 12.39C20.84 12.46 20.95 12.48 21.02 12.42C21.1 12.36 21.11 12.25 21.05 12.18Z" />
		<path id="Path 1459" class="shp3" d="M25.42 12.58L23.89 13.95L23.28 14.72L24.05 14.11L25.42 12.58Z" />
		<path id="Path 1460" class="shp3" d="M21.85 11.77C21.81 11.69 21.71 11.64 21.62 11.68C21.54 11.72 21.5 11.82 21.53 11.91C21.57 11.99 21.67 12.04 21.75 12C21.84 11.96 21.88 11.86 21.85 11.77Z" />
		<path id="Path 1461" class="shp3" d="M25.96 13.29L24.13 14.21L23.34 14.8L24.24 14.42L25.96 13.29Z" />
		<path id="Path 1462" class="shp3" d="M22.72 11.58C22.71 11.49 22.62 11.43 22.53 11.44C22.44 11.45 22.37 11.54 22.38 11.63C22.39 11.72 22.48 11.79 22.57 11.77C22.67 11.76 22.73 11.68 22.72 11.58Z" />
		<path id="Path 1463" class="shp3" d="M26.3 14.11L24.29 14.53L23.38 14.9L24.35 14.76L26.3 14.11Z" />
		<path id="Path 1464" class="shp3" d="M23.47 11.44C23.37 11.43 23.29 11.49 23.28 11.59C23.27 11.68 23.33 11.77 23.43 11.78C23.52 11.79 23.61 11.72 23.62 11.63C23.63 11.54 23.56 11.45 23.47 11.44Z" />
		<path id="Path 1465" class="shp3" d="M26.42 15L24.37 14.88L23.39 15L24.37 15.12L26.42 15Z" />
		<path id="Path 1466" class="shp3" d="M24.37 11.68C24.29 11.64 24.19 11.68 24.15 11.77C24.12 11.86 24.16 11.96 24.24 11.99C24.33 12.03 24.43 11.99 24.47 11.9C24.5 11.81 24.46 11.71 24.37 11.68Z" />
		<path id="Path 1467" class="shp3" d="M26.3 15.89L24.35 15.24L23.38 15.1L24.29 15.47L26.3 15.89Z" />
		<path id="Path 1468" class="shp3" d="M25.19 12.15C25.11 12.09 25.01 12.11 24.95 12.18C24.89 12.26 24.91 12.36 24.98 12.42C25.05 12.48 25.16 12.46 25.22 12.39C25.28 12.31 25.27 12.21 25.19 12.15Z" />
		<path id="Path 1469" class="shp3" d="M25.96 16.71L24.24 15.58L23.34 15.2L24.13 15.79L25.96 16.71Z" />
		<path id="Path 1470" class="shp3" d="M25.85 12.81C25.79 12.74 25.68 12.72 25.61 12.78C25.54 12.84 25.52 12.95 25.58 13.02C25.64 13.09 25.74 13.11 25.82 13.05C25.89 13 25.91 12.89 25.85 12.81Z" />
		<path id="Path 1471" class="shp3" d="M25.42 17.42L24.05 15.89L23.28 15.28L23.89 16.05L25.42 17.42Z" />
		<path id="Path 1472" class="shp3" d="M26.32 13.62C26.28 13.54 26.18 13.5 26.1 13.53C26.01 13.57 25.97 13.67 26 13.75C26.04 13.84 26.14 13.88 26.23 13.85C26.31 13.81 26.36 13.71 26.32 13.62Z" />
		<path id="Path 1473" class="shp3" d="M24.71 17.96L23.79 16.13L23.2 15.34L23.58 16.24L24.71 17.96Z" />
		<path id="Path 1474" class="shp3" d="M26.56 14.53C26.55 14.44 26.46 14.37 26.37 14.38C26.28 14.4 26.21 14.48 26.23 14.57C26.24 14.67 26.32 14.73 26.42 14.72C26.51 14.71 26.58 14.62 26.56 14.53Z" />
		<path id="Path 1475" class="shp3" d="M23.89 18.3L23.47 16.29L23.1 15.38L23.24 16.35L23.89 18.3Z" />
	</g>
</svg>