<svg xmlns="http://www.w3.org/2000/svg" viewBox="0 0 36 35" width="36" height="35">
	<style>
		tspan { white-space:pre }
		.shp0 { fill: #2f89fc } 
	</style>
	<path id="Path 329" fill-rule="evenodd" class="shp0" d="M10.61 0.71L10.69 0.76L10.73 0.8L16.11 6.34L16.23 6.46L16.19 6.51C17.38 7.61 17.36 9.49 16.23 10.62L13.55 13.31C13.96 14.25 15.08 16.67 17.28 18.76C19.5 20.88 21.81 22.07 22.78 22.54L25.47 19.86C26.58 18.74 28.55 18.74 29.67 19.86L29.71 19.94L35.16 25.4C36.28 26.51 36.28 28.44 35.16 29.55L30.92 33.79C29.67 34.87 27.9 35.26 26.27 34.72L26.22 34.72C23.07 33.48 16.69 30.69 10.99 24.98C5.3 19.29 2.39 13 1.25 9.74C1.24 9.73 1.25 9.71 1.25 9.7C0.69 8.15 1.08 6.36 2.38 5.16L2.34 5.12L6.54 0.8L6.58 0.76L6.66 0.71C7.24 0.25 7.93 0 8.63 0C9.34 0 10.03 0.25 10.61 0.71ZM8.34 2.81L4.27 6.97L4.19 7.05C3.71 7.46 3.56 8.27 3.77 8.82C4.78 11.74 7.56 17.77 12.87 23.09C18.15 28.36 24.06 30.96 27.11 32.15C27.89 32.42 28.54 32.31 29.16 31.78L33.28 27.66C33.51 27.43 33.51 27.52 33.28 27.29L27.78 21.79C27.55 21.56 27.59 21.56 27.36 21.79L23.37 25.77L22.53 25.4C22.53 25.4 18.85 23.84 15.73 20.99L15.44 20.74C12.19 17.65 10.65 13.52 10.65 13.52L10.36 12.68L10.99 12.09L14.34 8.73C14.51 8.57 14.42 8.43 14.43 8.44L14.3 8.31L8.93 2.81C8.83 2.73 8.73 2.69 8.63 2.69C8.54 2.69 8.44 2.73 8.34 2.81ZM14.43 8.44C14.43 8.44 14.43 8.44 14.43 8.44Z" />
</svg>